# xmcd
#
# Track frame offsets:
#	150
#	8532
#	24774
#	42629
#	58544
#	78861
#	104261
#	127161
#	144167
#	163618
#	188148
#	206739
#	215959
#	234744
#	254775
#	268260
#
# Disc length: 3801 seconds
#
# Revision: 0
# Processed by: cddbd v1.4PL0 Copyright (c) Steve Scherf et al.
# Submitted via: audiograbber 1.80
#
DISCID=e90ed710
DTITLE=Alicia Keys - Songs In A Minor
DYEAR=1900
DGENRE=
TTITLE0=Piano and I
TTITLE1=Girlfriend
TTITLE2=How Come You Don't Call Me
TTITLE3=Fallin'
TTITLE4=Troubles
TTITLE5=Rock Wit You
TTITLE6=A Woman's Worth
TTITLE7=Jane Doe
TTITLE8=Goodbye
TTITLE9=The Life
TTITLE10=Mr. Man (Duet With Jimmy Cozier)
TTITLE11=Never Felt This Way (Interlude)
TTITLE12=Butterflyz
TTITLE13=Why Do I Feel So Sad
TTITLE14=Caged Bird
TTITLE15=Lovin U (Bonus Track)
EXTD=
EXTT0=
EXTT1=
EXTT2=
EXTT3=
EXTT4=
EXTT5=
EXTT6=
EXTT7=
EXTT8=
EXTT9=
EXTT10=
EXTT11=
EXTT12=
EXTT13=
EXTT14=
EXTT15=
PLAYORDER=
